REM DIRINDEX 1\2,1\4,1\5,1\6,1\3\7,1\3\8,1\3\9
REM DIRNAME folder01,folder02,folder03,folder04,folder05,folder06,folder07,folder08,folder09
TITLE ""
FILE "Disc1Track03.mp3" MP3
  TRACK 01 AUDIO
    TITLE "6:cjc028_0095"
    INDEX 01 00:00:00
  TRACK 02 AUDIO
    TITLE "2:cjc028_0096"
    INDEX 01 00:01:64
  TRACK 03 AUDIO
    TITLE "2:cjc028_0097"
    INDEX 01 00:03:19
  TRACK 04 AUDIO
    TITLE "2:cjc028_0098"
    INDEX 01 00:04:44
  TRACK 05 AUDIO
    TITLE "2:cjc028_0099"
    INDEX 01 00:05:46
  TRACK 06 AUDIO
    TITLE "2:cjc028_0100"
    INDEX 01 00:07:19
  TRACK 07 AUDIO
    TITLE "2:cjc028_0101"
    INDEX 01 00:08:54
  TRACK 08 AUDIO
    TITLE "2:cjc028_0102"
    INDEX 01 00:09:59
  TRACK 09 AUDIO
    TITLE "2:cjc028_0103"
    INDEX 01 00:10:63
  TRACK 10 AUDIO
    TITLE "2:cjc028_0104"
    INDEX 01 00:12:38
  TRACK 11 AUDIO
    TITLE "2:cjc028_0105"
    INDEX 01 00:13:69
  TRACK 12 AUDIO
    TITLE "2:cjc028_0106"
    INDEX 01 00:15:03
  TRACK 13 AUDIO
    TITLE "2:cjc028_0107"
    INDEX 01 00:16:16
  TRACK 14 AUDIO
    TITLE "2:cjc028_0108"
    INDEX 01 00:17:69
  TRACK 15 AUDIO
    TITLE "2:cjc028_0109"
    INDEX 01 00:19:26
  TRACK 16 AUDIO
    TITLE "2:cjc028_0110"
    INDEX 01 00:20:36
  TRACK 17 AUDIO
    TITLE "2:cjc028_0111"
    INDEX 01 00:21:31
  TRACK 18 AUDIO
    TITLE "2:cjc028_0112"
    INDEX 01 00:23:10
  TRACK 19 AUDIO
    TITLE "2:cjc028_0113"
    INDEX 01 00:24:41
  TRACK 20 AUDIO
    TITLE "2:cjc028_0114"
    INDEX 01 00:25:43
  TRACK 21 AUDIO
    TITLE "2:cjc028_0115"
    INDEX 01 00:26:62
  TRACK 22 AUDIO
    TITLE "2:cjc028_0116"
    INDEX 01 00:28:37
  TRACK 23 AUDIO
    TITLE "2:cjc028_0117"
    INDEX 01 00:29:60
  TRACK 24 AUDIO
    TITLE "2:cjc028_0118"
    INDEX 01 00:30:69
  TRACK 25 AUDIO
    TITLE "2:cjc028_0119"
    INDEX 01 00:32:03
  TRACK 26 AUDIO
    TITLE "2:cjc028_0120"
    INDEX 01 00:33:69
  TRACK 27 AUDIO
    TITLE "2:cjc028_0121"
    INDEX 01 00:35:29
  TRACK 28 AUDIO
    TITLE "2:cjc028_0122"
    INDEX 01 00:36:42
  TRACK 29 AUDIO
    TITLE "2:cjc028_0123"
    INDEX 01 00:37:52
  TRACK 30 AUDIO
    TITLE "2:cjc028_0124"
    INDEX 01 00:39:23
  TRACK 31 AUDIO
    TITLE "2:cjc028_0125"
    INDEX 01 00:40:58
  TRACK 32 AUDIO
    TITLE "2:cjc028_0126"
    INDEX 01 00:42:14
  TRACK 33 AUDIO
    TITLE "2:cjc028_0127"
    INDEX 01 00:43:39
  TRACK 34 AUDIO
    TITLE "2:cjc028_0128"
    INDEX 01 00:45:35
  TRACK 35 AUDIO
    TITLE "2:cjc028_0129"
    INDEX 01 00:46:68
  TRACK 36 AUDIO
    TITLE "2:cjc028_0130"
    INDEX 01 00:47:72
  TRACK 37 AUDIO
    TITLE "2:cjc028_0131"
    INDEX 01 00:49:04
  TRACK 38 AUDIO
    TITLE "2:cjc028_0132"
    INDEX 01 00:50:44
  TRACK 39 AUDIO
    TITLE "2:cjc028_0133"
    INDEX 01 00:51:67
  TRACK 40 AUDIO
    TITLE "2:cjc028_0134"
    INDEX 01 00:53:04
  TRACK 41 AUDIO
    TITLE "2:cjc028_0135"
    INDEX 01 00:54:23
  TRACK 42 AUDIO
    TITLE "2:cjc028_0136"
    INDEX 01 00:56:02
  TRACK 43 AUDIO
    TITLE "2:cjc028_0137"
    INDEX 01 00:57:17
  TRACK 44 AUDIO
    TITLE "2:cjc028_0138"
    INDEX 01 00:58:32
  TRACK 45 AUDIO
    TITLE "2:cjc028_0139"
    INDEX 01 00:59:65
  TRACK 46 AUDIO
    TITLE "2:cjc028_0140"
    INDEX 01 01:01:33
  TRACK 47 AUDIO
    TITLE "2:cjc028_0141"
    INDEX 01 01:02:55
  TRACK 48 AUDIO
    TITLE "2:cjc028_0142"
    INDEX 01 01:03:71
  TRACK 49 AUDIO
    TITLE "2:cjc028_0143"
    INDEX 01 01:05:13
  TRACK 50 AUDIO
    TITLE "2:cjc028_0144"
    INDEX 01 01:07:06
  TRACK 51 AUDIO
    TITLE "2:cjc028_0145"
    INDEX 01 01:08:38
  TRACK 52 AUDIO
    TITLE "2:cjc028_0146"
    INDEX 01 01:09:56
  TRACK 53 AUDIO
    TITLE "2:cjc028_0147"
    INDEX 01 01:10:71
  TRACK 54 AUDIO
    TITLE "2:cjc028_0148"
    INDEX 01 01:12:62
  TRACK 55 AUDIO
    TITLE "2:cjc028_0149"
    INDEX 01 01:14:08
  TRACK 56 AUDIO
    TITLE "2:cjc028_0150"
    INDEX 01 01:15:33
  TRACK 57 AUDIO
    TITLE "2:cjc028_0151"
    INDEX 01 01:16:61
  TRACK 58 AUDIO
    TITLE "2:cjc028_0152"
    INDEX 01 01:18:66
  TRACK 59 AUDIO
    TITLE "2:cjc028_0153"
    INDEX 01 01:20:26
  TRACK 60 AUDIO
    TITLE "2:cjc028_0154"
    INDEX 01 01:21:43
  TRACK 61 AUDIO
    TITLE "2:cjc028_0155"
    INDEX 01 01:22:66
  TRACK 62 AUDIO
    TITLE "2:cjc028_0156"
    INDEX 01 01:24:41
  TRACK 63 AUDIO
    TITLE "2:cjc028_0157"
    INDEX 01 01:25:66
  TRACK 64 AUDIO
    TITLE "2:cjc028_0158"
    INDEX 01 01:27:14
  TRACK 65 AUDIO
    TITLE "2:cjc028_0159"
    INDEX 01 01:28:27
  TRACK 66 AUDIO
    TITLE "2:cjc028_0160"
    INDEX 01 01:30:13
  TRACK 67 AUDIO
    TITLE "2:cjc028_0161"
    INDEX 01 01:31:51
  TRACK 68 AUDIO
    TITLE "2:cjc028_0162"
    INDEX 01 01:32:60
  TRACK 69 AUDIO
    TITLE "2:cjc028_0163"
    INDEX 01 01:33:74
  TRACK 70 AUDIO
    TITLE "2:cjc028_0164"
    INDEX 01 01:35:57
  TRACK 71 AUDIO
    TITLE "2:cjc028_0165"
    INDEX 01 01:37:42
  TRACK 72 AUDIO
    TITLE "2:cjc028_0166"
    INDEX 01 01:38:51
  TRACK 73 AUDIO
    TITLE "2:cjc028_0167"
    INDEX 01 01:40:09
  TRACK 74 AUDIO
    TITLE "2:cjc028_0168"
    INDEX 01 01:42:02
  TRACK 75 AUDIO
    TITLE "2:cjc028_0169"
    INDEX 01 01:43:43
  TRACK 76 AUDIO
    TITLE "2:cjc028_0170"
    INDEX 01 01:44:58
  TRACK 77 AUDIO
    TITLE "2:cjc028_0171"
    INDEX 01 01:45:73
  TRACK 78 AUDIO
    TITLE "2:cjc028_0172"
    INDEX 01 01:47:39
  TRACK 79 AUDIO
    TITLE "2:cjc028_0173"
    INDEX 01 01:48:58
  TRACK 80 AUDIO
    TITLE "2:cjc028_0174"
    INDEX 01 01:49:69
  TRACK 81 AUDIO
    TITLE "2:cjc028_0175"
    INDEX 01 01:51:13
  TRACK 82 AUDIO
    TITLE "2:cjc028_0176"
    INDEX 01 01:52:65
  TRACK 83 AUDIO
    TITLE "2:cjc028_0177"
    INDEX 01 01:54:09
  TRACK 84 AUDIO
    TITLE "2:cjc028_0178"
    INDEX 01 01:55:26
  TRACK 85 AUDIO
    TITLE "2:cjc028_0179"
    INDEX 01 01:56:43
  TRACK 86 AUDIO
    TITLE "2:cjc028_0180"
    INDEX 01 01:58:25
  TRACK 87 AUDIO
    TITLE "2:cjc028_0181"
    INDEX 01 02:00:16
  TRACK 88 AUDIO
    TITLE "2:cjc028_0182"
    INDEX 01 02:01:15
  TRACK 89 AUDIO
    TITLE "2:cjc028_0183"
    INDEX 01 02:02:42
  TRACK 90 AUDIO
    TITLE "2:cjc028_0184"
    INDEX 01 02:04:19
  TRACK 91 AUDIO
    TITLE "2:cjc028_0185"
    INDEX 01 02:05:38
  TRACK 92 AUDIO
    TITLE "2:cjc028_0186"
    INDEX 01 02:06:65
  TRACK 93 AUDIO
    TITLE "2:cjc028_0187"
    INDEX 01 02:08:03
  TRACK 94 AUDIO
    TITLE "2:cjc028_0188"
    INDEX 01 02:09:60
  TRACK 95 AUDIO
    TITLE "2:cjc028_0189"
    INDEX 01 02:11:10
  TRACK 96 AUDIO
    TITLE "2:cjc028_0190"
    INDEX 01 02:12:42
  TRACK 97 AUDIO
    TITLE "2:cjc028_0191"
    INDEX 01 02:13:52
  TRACK 98 AUDIO
    TITLE "2:cjc028_0192"
    INDEX 01 02:15:29
  TRACK 99 AUDIO
    TITLE "2:cjc028_0193"
    INDEX 01 02:16:46
  TRACK 100 AUDIO
    TITLE "2:cjc028_0194"
    INDEX 01 02:17:61
  TRACK 101 AUDIO
    TITLE "2:cjc028_0195"
    INDEX 01 02:19:19
  TRACK 102 AUDIO
    TITLE "2:cjc028_0196"
    INDEX 01 02:20:73
  TRACK 103 AUDIO
    TITLE "2:cjc028_0197"
    INDEX 01 02:22:15
  TRACK 104 AUDIO
    TITLE "2:cjc028_0198"
    INDEX 01 02:23:25
  TRACK 105 AUDIO
    TITLE "2:cjc028_0199"
    INDEX 01 02:24:34
  TRACK 106 AUDIO
    TITLE "0:"
    INDEX 01 02:25:74
